<svg width="178" height="176" viewBox="0 0 178 176" fill="none" xmlns="http://www.w3.org/2000/svg">
<rect width="178" height="176" rx="57" fill="#0C60FB"/>
<path d="M35.0354 70.172L34.2983 71.8172C33.3039 74.0367 32.5141 76.3422 31.9385 78.7052L31.8864 78.9193L31.1507 83.0266L31.0004 86.7684L30.8916 90.3795L31.0637 93.0312L31.9772 97.468L32.4121 98.9409C32.8831 100.536 33.6237 102.039 34.6018 103.384L34.6993 103.518C35.1555 104.146 35.6679 104.73 36.2303 105.265C37.5423 106.511 39.1045 107.465 40.8132 108.062L45.5321 109.71C51.823 111.956 58.7358 111.707 64.8482 109.012L69.593 106.921L84.0199 99.5629L93.2435 93.4552L101.083 86.6268L108.035 80.0174L114.163 72.5399L118.342 66.8934C119.485 65.3489 120.515 63.7241 121.425 62.0315L122.487 60.0542L123.205 58.1987C123.901 56.3994 124.257 54.487 124.257 52.5579V51.5479C124.257 49.3124 123.637 47.1209 122.465 45.2173L122.18 44.7546C121.282 43.2964 120.025 42.0933 118.528 41.2607C117.042 40.4339 115.369 40 113.669 40H111.364L108.848 40.1217C107.278 40.1977 105.718 40.4183 104.188 40.7805C102.337 41.2189 100.541 41.8624 98.832 42.6991L92.9051 45.6014L86.9963 49.1916C84.8649 50.4867 82.8594 51.9782 81.0058 53.6467L76.5189 57.6857L70.0819 64.7075L63.7095 73.2986L59.057 81.2448L56.5718 86.1241C55.6921 87.8512 54.9391 89.6399 54.3188 91.4761L52.7584 96.0949C51.8715 98.7203 51.2598 101.431 50.9331 104.182L49.4894 116.345C49.1873 118.89 49.4352 121.469 50.2161 123.91C51.2696 127.202 53.2538 130.119 55.9289 132.307L56.8196 133.036C58.6091 134.5 60.6583 135.614 62.8601 136.32C64.5293 136.855 66.2665 137.148 68.0188 137.192L69.3986 137.227C70.8934 137.264 72.3889 137.182 73.8707 136.981L80.3726 136.098C83.0087 135.74 85.6024 135.12 88.1153 134.247L94.2078 132.13C97.5362 130.974 100.697 129.383 103.609 127.399L114.163 120.206L124.075 112.199L134.676 101.316" stroke="white" stroke-width="17" stroke-linecap="round"/>
<path d="M114.116 95.8518L140.231 122.382C140.231 122.383 140.232 122.383 140.232 122.382L149.314 87.006C149.315 87.0053 149.314 87.0046 149.313 87.0048L114.117 95.8501C114.116 95.8503 114.116 95.8513 114.116 95.8518Z" fill="white" stroke="white" stroke-width="6" stroke-linecap="round"/>
</svg>
